  0
SECTION
  2
HEADER
  9
$ACADVER
  1
AC1014
  9
$HANDSEED
  5
FFFF
  9
$MEASUREMENT
 70
     1
  0
ENDSEC
  0
SECTION
  2
TABLES
  0
TABLE
  2
VPORT
  5
8
330
0
100
AcDbSymbolTable
 70
     4
  0
VPORT
  5
2E
330
8
100
AcDbSymbolTableRecord
100
AcDbViewportTableRecord
  2
*ACTIVE
 70
     0
 10
0.0
 20
0.0
 11
1.0
 21
1.0
 12
210.0
 22
148.5
 13
0.0
 23
0.0
 14
10.0
 24
10.0
 15
10.0
 25
10.0
 16
0.0
 26
0.0
 36
1.0
 17
0.0
 27
0.0
 37
0.0
 40
341.0
 41
1.24
 42
50.0
 43
0.0
 44
0.0
 50
0.0
 51
0.0
 71
     0
 72
   100
 73
     1
 74
     3
 75
     0
 76
     0
 77
     0
 78
     0
  0
ENDTAB
  0
TABLE
  2
LTYPE
  5
5
330
0
100
AcDbSymbolTable
 70
     1
  0
LTYPE
  5
14
330
5
100
AcDbSymbolTableRecord
100
AcDbLinetypeTableRecord
  2
BYBLOCK
 70
     0
  3

 72
    65
 73
     0
 40
0.0
  0
LTYPE
  5
15
330
5
100
AcDbSymbolTableRecord
100
AcDbLinetypeTableRecord
  2
BYLAYER
 70
     0
  3

 72
    65
 73
     0
 40
0.0
  0
LTYPE
  5
16
330
5
100
AcDbSymbolTableRecord
100
AcDbLinetypeTableRecord
  2
CONTINUOUS
 70
     0
  3
Solid line
 72
    65
 73
     0
 40
0.0
  0
ENDTAB
  0
TABLE
  2
LAYER
  5
2
100
AcDbSymbolTable
 70
2
  0
LAYER
  5
50
100
AcDbSymbolTableRecord
100
AcDbLayerTableRecord
  2
0
 70
0
  6
CONTINUOUS
  0
LAYER
  5
51
100
AcDbSymbolTableRecord
100
AcDbLayerTableRecord
  2
Layer_1
 70
0
  6
CONTINUOUS
  0
ENDTAB
  0
TABLE
  2
STYLE
  5
3
330
0
100
AcDbSymbolTable
 70
     1
  0
STYLE
  5
11
330
3
100
AcDbSymbolTableRecord
100
AcDbTextStyleTableRecord
  2
STANDARD
 70
     0
 40
0.0
 41
1.0
 50
0.0
 71
     0
 42
2.5
  3
txt
  4

  0
ENDTAB
  0
TABLE
  2
VIEW
  5
6
330
0
100
AcDbSymbolTable
 70
     0
  0
ENDTAB
  0
TABLE
  2
UCS
  5
7
330
0
100
AcDbSymbolTable
 70
     0
  0
ENDTAB
  0
TABLE
  2
APPID
  5
9
330
0
100
AcDbSymbolTable
 70
     2
  0
APPID
  5
12
330
9
100
AcDbSymbolTableRecord
100
AcDbRegAppTableRecord
  2
ACAD
 70
     0
  0
ENDTAB
  0
TABLE
  2
DIMSTYLE
  5
A
330
0
100
AcDbSymbolTable
 70
     1
  0
DIMSTYLE
105
27
330
A
100
AcDbSymbolTableRecord
100
AcDbDimStyleTableRecord
  2
ISO-25
 70
     0
  3

  4

  5

  6

  7

 40
1.0
 41
2.5
 42
0.625
 43
3.75
 44
1.25
 45
0.0
 46
0.0
 47
0.0
 48
0.0
140
2.5
141
2.5
142
0.0
143
0.03937007874016
144
1.0
145
0.0
146
1.0
147
0.625
 71
     0
 72
     0
 73
     0
 74
     0
 75
     0
 76
     0
 77
     1
 78
     8
170
     0
171
     3
172
     1
173
     0
174
     0
175
     0
176
     0
177
     0
178
     0
270
     2
271
     2
272
     2
273
     2
274
     3
340
11
275
     0
280
     0
281
     0
282
     0
283
     0
284
     8
285
     0
286
     0
287
     3
288
     0
  0
ENDTAB
  0
TABLE
  2
BLOCK_RECORD
  5
1
330
0
100
AcDbSymbolTable
 70
     1
  0
BLOCK_RECORD
  5
1F
330
1
100
AcDbSymbolTableRecord
100
AcDbBlockTableRecord
  2
*MODEL_SPACE
  0
BLOCK_RECORD
  5
1B
330
1
100
AcDbSymbolTableRecord
100
AcDbBlockTableRecord
  2
*PAPER_SPACE
  0
ENDTAB
  0
ENDSEC
  0
SECTION
  2
BLOCKS
  0
BLOCK
  5
20
330
1F
100
AcDbEntity
  8
0
100
AcDbBlockBegin
  2
*MODEL_SPACE
 70
     0
 10
0.0
 20
0.0
 30
0.0
  3
*MODEL_SPACE
  1

  0
ENDBLK
  5
21
330
1F
100
AcDbEntity
  8
0
100
AcDbBlockEnd
  0
BLOCK
  5
1C
330
1B
100
AcDbEntity
 67
     1
  8
0
100
AcDbBlockBegin
  2
*PAPER_SPACE
  1

  0
ENDBLK
  5
1D
330
1B
100
AcDbEntity
 67
     1
  8
0
100
AcDbBlockEnd
  0
ENDSEC
  0
SECTION
  2
ENTITIES
  0
SPLINE
  5
100
100
AcDbEntity
  8
Layer_1
 62
7
100
AcDbSpline
 70
8
 71
3
 72
8
 73
4
 74
0
 40
0
 40
0
 40
0
 40
0
 40
1
 40
1
 40
1
 40
1
 10
103.119575
 20
157.577712
 30
0.0
 10
100.852529
 20
157.739313
 30
0.0
 10
98.833195
 20
158.650495
 30
0.0
 10
97.265549
 20
160.219171
 30
0.0
  0
SPLINE
  5
101
100
AcDbEntity
  8
Layer_1
 62
7
100
AcDbSpline
 70
8
 71
3
 72
8
 73
4
 74
0
 40
0
 40
0
 40
0
 40
0
 40
1
 40
1
 40
1
 40
1
 10
97.265549
 20
160.219171
 30
0.0
 10
95.875362
 20
161.610301
 30
0.0
 10
94.979942
 20
163.389938
 30
0.0
 10
94.695055
 20
165.328043
 30
0.0
  0
SPLINE
  5
102
100
AcDbEntity
  8
Layer_1
 62
7
100
AcDbSpline
 70
8
 71
3
 72
8
 73
4
 74
0
 40
0
 40
0
 40
0
 40
0
 40
1
 40
1
 40
1
 40
1
 10
94.695055
 20
165.328043
 30
0.0
 10
94.607064
 20
165.926664
 30
0.0
 10
94.577247
 20
166.847950
 30
0.0
 10
94.627985
 20
167.400485
 30
0.0
  0
SPLINE
  5
103
100
AcDbEntity
  8
Layer_1
 62
7
100
AcDbSpline
 70
8
 71
3
 72
8
 73
4
 74
0
 40
0
 40
0
 40
0
 40
0
 40
1
 40
1
 40
1
 40
1
 10
94.627985
 20
167.400485
 30
0.0
 10
94.772373
 20
168.972858
 30
0.0
 10
95.245270
 20
170.349877
 30
0.0
 10
96.079527
 20
171.627158
 30
0.0
  0
SPLINE
  5
104
100
AcDbEntity
  8
Layer_1
 62
7
100
AcDbSpline
 70
8
 71
3
 72
8
 73
4
 74
0
 40
0
 40
0
 40
0
 40
0
 40
1
 40
1
 40
1
 40
1
 10
96.079527
 20
171.627158
 30
0.0
 10
96.773873
 20
172.690218
 30
0.0
 10
97.805751
 20
173.705064
 30
0.0
 10
98.836057
 20
174.338185
 30
0.0
  0
SPLINE
  5
105
100
AcDbEntity
  8
Layer_1
 62
7
100
AcDbSpline
 70
8
 71
3
 72
8
 73
4
 74
0
 40
0
 40
0
 40
0
 40
0
 40
1
 40
1
 40
1
 40
1
 10
98.836057
 20
174.338185
 30
0.0
 10
98.931595
 20
174.396892
 30
0.0
 10
99.010058
 20
174.450935
 30
0.0
 10
99.010419
 20
174.458281
 30
0.0
  0
SPLINE
  5
106
100
AcDbEntity
  8
Layer_1
 62
7
100
AcDbSpline
 70
8
 71
3
 72
8
 73
4
 74
0
 40
0
 40
0
 40
0
 40
0
 40
1
 40
1
 40
1
 40
1
 10
99.010419
 20
174.458281
 30
0.0
 10
99.010701
 20
174.465619
 30
0.0
 10
98.689092
 20
175.062813
 30
0.0
 10
98.295562
 20
175.785364
 30
0.0
  0
SPLINE
  5
107
100
AcDbEntity
  8
Layer_1
 62
7
100
AcDbSpline
 70
8
 71
3
 72
8
 73
4
 74
0
 40
0
 40
0
 40
0
 40
0
 40
1
 40
1
 40
1
 40
1
 10
98.295562
 20
175.785364
 30
0.0
 10
97.902028
 20
176.507915
 30
0.0
 10
97.562540
 20
177.133519
 30
0.0
 10
97.541139
 20
177.175596
 30
0.0
  0
LINE
  5
108
100
AcDbEntity
  8
Layer_1
 62
7
100
AcDbLine
 10
97.541139
 20
177.175596
 30
0.0
 11
97.502232
 21
177.252101
 31
0.0
  0
LINE
  5
109
100
AcDbEntity
  8
Layer_1
 62
7
100
AcDbLine
 10
97.502232
 20
177.252101
 30
0.0
 11
97.579476
 21
177.297070
 31
0.0
  0
SPLINE
  5
10a
100
AcDbEntity
  8
Layer_1
 62
7
100
AcDbSpline
 70
8
 71
3
 72
8
 73
4
 74
0
 40
0
 40
0
 40
0
 40
0
 40
1
 40
1
 40
1
 40
1
 10
97.579476
 20
177.297070
 30
0.0
 10
98.002917
 20
177.543574
 30
0.0
 10
100.422467
 20
178.888911
 30
0.0
 10
100.434902
 20
178.884765
 30
0.0
  0
SPLINE
  5
10b
100
AcDbEntity
  8
Layer_1
 62
7
100
AcDbSpline
 70
8
 71
3
 72
8
 73
4
 74
0
 40
0
 40
0
 40
0
 40
0
 40
1
 40
1
 40
1
 40
1
 10
100.434902
 20
178.884765
 30
0.0
 10
100.456915
 20
178.877427
 30
0.0
 10
101.540855
 20
176.944061
 30
0.0
 10
101.534163
 20
176.924091
 30
0.0
  0
SPLINE
  5
10c
100
AcDbEntity
  8
Layer_1
 62
7
100
AcDbSpline
 70
8
 71
3
 72
8
 73
4
 74
0
 40
0
 40
0
 40
0
 40
0
 40
1
 40
1
 40
1
 40
1
 10
101.534163
 20
176.924091
 30
0.0
 10
101.531256
 20
176.915455
 30
0.0
 10
101.009422
 20
176.617273
 30
0.0
 10
100.374515
 20
176.261475
 30
0.0
  0
SPLINE
  5
10d
100
AcDbEntity
  8
Layer_1
 62
7
100
AcDbSpline
 70
8
 71
3
 72
8
 73
4
 74
0
 40
0
 40
0
 40
0
 40
0
 40
1
 40
1
 40
1
 40
1
 10
100.374515
 20
176.261475
 30
0.0
 10
99.739605
 20
175.905681
 30
0.0
 10
99.213314
 20
175.607998
 30
0.0
 10
99.204975
 20
175.599961
 30
0.0
  0
SPLINE
  5
10e
100
AcDbEntity
  8
Layer_1
 62
7
100
AcDbSpline
 70
8
 71
3
 72
8
 73
4
 74
0
 40
0
 40
0
 40
0
 40
0
 40
1
 40
1
 40
1
 40
1
 10
99.204975
 20
175.599961
 30
0.0
 10
99.193601
 20
175.589010
 30
0.0
 10
99.583974
 20
174.840484
 30
0.0
 10
99.621436
 20
174.801393
 30
0.0
  0
SPLINE
  5
10f
100
AcDbEntity
  8
Layer_1
 62
7
100
AcDbSpline
 70
8
 71
3
 72
8
 73
4
 74
0
 40
0
 40
0
 40
0
 40
0
 40
1
 40
1
 40
1
 40
1
 10
99.621436
 20
174.801393
 30
0.0
 10
99.625190
 20
174.797470
 30
0.0
 10
99.736856
 20
174.843755
 30
0.0
 10
99.869585
 20
174.904232
 30
0.0
  0
SPLINE
  5
110
100
AcDbEntity
  8
Layer_1
 62
7
100
AcDbSpline
 70
8
 71
3
 72
8
 73
4
 74
0
 40
0
 40
0
 40
0
 40
0
 40
1
 40
1
 40
1
 40
1
 10
99.869585
 20
174.904232
 30
0.0
 10
101.992478
 20
175.871487
 30
0.0
 10
104.361508
 20
176.005184
 30
0.0
 10
106.546359
 20
175.281033
 30
0.0
  0
SPLINE
  5
111
100
AcDbEntity
  8
Layer_1
 62
7
100
AcDbSpline
 70
8
 71
3
 72
8
 73
4
 74
0
 40
0
 40
0
 40
0
 40
0
 40
1
 40
1
 40
1
 40
1
 10
106.546359
 20
175.281033
 30
0.0
 10
107.904929
 20
174.830747
 30
0.0
 10
109.097211
 20
174.095107
 30
0.0
 10
110.110160
 20
173.082157
 30
0.0
  0
SPLINE
  5
112
100
AcDbEntity
  8
Layer_1
 62
7
100
AcDbSpline
 70
8
 71
3
 72
8
 73
4
 74
0
 40
0
 40
0
 40
0
 40
0
 40
1
 40
1
 40
1
 40
1
 10
110.110160
 20
173.082157
 30
0.0
 10
111.676485
 20
171.515821
 30
0.0
 10
112.593639
 20
169.509362
 30
0.0
 10
112.755748
 20
167.294398
 30
0.0
  0
SPLINE
  5
113
100
AcDbEntity
  8
Layer_1
 62
7
100
AcDbSpline
 70
8
 71
3
 72
8
 73
4
 74
0
 40
0
 40
0
 40
0
 40
0
 40
1
 40
1
 40
1
 40
1
 10
112.755748
 20
167.294398
 30
0.0
 10
112.786739
 20
166.870951
 30
0.0
 10
112.768730
 20
166.008509
 30
0.0
 10
112.720591
 20
165.609841
 30
0.0
  0
SPLINE
  5
114
100
AcDbEntity
  8
Layer_1
 62
7
100
AcDbSpline
 70
8
 71
3
 72
8
 73
4
 74
0
 40
0
 40
0
 40
0
 40
0
 40
1
 40
1
 40
1
 40
1
 10
112.720591
 20
165.609841
 30
0.0
 10
112.493925
 20
163.733035
 30
0.0
 10
111.772023
 20
162.097106
 30
0.0
 10
110.545917
 20
160.681762
 30
0.0
  0
SPLINE
  5
115
100
AcDbEntity
  8
Layer_1
 62
7
100
AcDbSpline
 70
8
 71
3
 72
8
 73
4
 74
0
 40
0
 40
0
 40
0
 40
0
 40
1
 40
1
 40
1
 40
1
 10
110.545917
 20
160.681762
 30
0.0
 10
110.317864
 20
160.418505
 30
0.0
 10
109.798070
 20
159.905594
 30
0.0
 10
109.545930
 20
159.695028
 30
0.0
  0
SPLINE
  5
116
100
AcDbEntity
  8
Layer_1
 62
7
100
AcDbSpline
 70
8
 71
3
 72
8
 73
4
 74
0
 40
0
 40
0
 40
0
 40
0
 40
1
 40
1
 40
1
 40
1
 10
109.545930
 20
159.695028
 30
0.0
 10
108.047282
 20
158.443401
 30
0.0
 10
106.297338
 20
157.734092
 30
0.0
 10
104.338493
 20
157.584232
 30
0.0
  0
SPLINE
  5
117
100
AcDbEntity
  8
Layer_1
 62
7
100
AcDbSpline
 70
8
 71
3
 72
8
 73
4
 74
0
 40
0
 40
0
 40
0
 40
0
 40
1
 40
1
 40
1
 40
1
 10
104.338493
 20
157.584232
 30
0.0
 10
104.117939
 20
157.567298
 30
0.0
 10
103.324352
 20
157.563065
 30
0.0
 10
103.119575
 20
157.577741
 30
0.0
  0
LINE
  5
118
100
AcDbEntity
  8
Layer_1
 62
7
100
AcDbLine
 10
103.119575
 20
157.577741
 30
0.0
 11
103.119575
 21
157.577712
 31
0.0
  0
SPLINE
  5
119
100
AcDbEntity
  8
Layer_1
 62
7
100
AcDbSpline
 70
8
 71
3
 72
8
 73
4
 74
0
 40
0
 40
0
 40
0
 40
0
 40
1
 40
1
 40
1
 40
1
 10
104.555736
 20
158.228799
 30
0.0
 10
104.710710
 20
158.245450
 30
0.0
 10
104.886599
 20
158.268705
 30
0.0
 10
104.946588
 20
158.280446
 30
0.0
  0
LINE
  5
11a
100
AcDbEntity
  8
Layer_1
 62
7
100
AcDbLine
 10
104.946588
 20
158.280446
 30
0.0
 11
105.055664
 21
158.301895
 31
0.0
  0
LINE
  5
11b
100
AcDbEntity
  8
Layer_1
 62
7
100
AcDbLine
 10
105.055664
 20
158.301895
 30
0.0
 11
105.179218
 21
158.483702
 31
0.0
  0
SPLINE
  5
11c
100
AcDbEntity
  8
Layer_1
 62
7
100
AcDbSpline
 70
8
 71
3
 72
8
 73
4
 74
0
 40
0
 40
0
 40
0
 40
0
 40
1
 40
1
 40
1
 40
1
 10
105.179218
 20
158.483702
 30
0.0
 10
105.695352
 20
159.243106
 30
0.0
 10
106.138212
 20
160.168287
 30
0.0
 10
106.492630
 20
161.227523
 30
0.0
  0
LINE
  5
11d
100
AcDbEntity
  8
Layer_1
 62
7
100
AcDbLine
 10
106.492630
 20
161.227523
 30
0.0
 11
106.644288
 21
161.680772
 31
0.0
  0
LINE
  5
11e
100
AcDbEntity
  8
Layer_1
 62
7
100
AcDbLine
 10
106.644288
 20
161.680772
 30
0.0
 11
106.795296
 21
161.711393
 31
0.0
  0
SPLINE
  5
11f
100
AcDbEntity
  8
Layer_1
 62
7
100
AcDbSpline
 70
8
 71
3
 72
8
 73
4
 74
0
 40
0
 40
0
 40
0
 40
0
 40
1
 40
1
 40
1
 40
1
 10
106.795296
 20
161.711393
 30
0.0
 10
107.108780
 20
161.774893
 30
0.0
 10
107.401199
 20
161.937763
 30
0.0
 10
107.625312
 20
162.173701
 30
0.0
  0
SPLINE
  5
120
100
AcDbEntity
  8
Layer_1
 62
7
100
AcDbSpline
 70
8
 71
3
 72
8
 73
4
 74
0
 40
0
 40
0
 40
0
 40
0
 40
1
 40
1
 40
1
 40
1
 10
107.625312
 20
162.173701
 30
0.0
 10
107.895602
 20
162.458238
 30
0.0
 10
108.036033
 20
162.771363
 30
0.0
 10
108.073921
 20
163.173925
 30
0.0
  0
SPLINE
  5
121
100
AcDbEntity
  8
Layer_1
 62
7
100
AcDbSpline
 70
8
 71
3
 72
8
 73
4
 74
0
 40
0
 40
0
 40
0
 40
0
 40
1
 40
1
 40
1
 40
1
 10
108.073921
 20
163.173925
 30
0.0
 10
108.098390
 20
163.433965
 30
0.0
 10
108.009224
 20
163.806667
 30
0.0
 10
107.858918
 20
164.072549
 30
0.0
  0
SPLINE
  5
122
100
AcDbEntity
  8
Layer_1
 62
7
100
AcDbSpline
 70
8
 71
3
 72
8
 73
4
 74
0
 40
0
 40
0
 40
0
 40
0
 40
1
 40
1
 40
1
 40
1
 10
107.858918
 20
164.072549
 30
0.0
 10
107.760513
 20
164.246652
 30
0.0
 10
107.523966
 20
164.495543
 30
0.0
 10
107.356712
 20
164.600982
 30
0.0
  0
LINE
  5
123
100
AcDbEntity
  8
Layer_1
 62
7
100
AcDbLine
 10
107.356712
 20
164.600982
 30
0.0
 11
107.226958
 21
164.682798
 31
0.0
  0
LINE
  5
124
100
AcDbEntity
  8
Layer_1
 62
7
100
AcDbLine
 10
107.226958
 20
164.682798
 30
0.0
 11
107.237203
 21
164.828227
 31
0.0
  0
SPLINE
  5
125
100
AcDbEntity
  8
Layer_1
 62
7
100
AcDbSpline
 70
8
 71
3
 72
8
 73
4
 74
0
 40
0
 40
0
 40
0
 40
0
 40
1
 40
1
 40
1
 40
1
 10
107.237200
 20
164.828227
 30
0.0
 10
107.242844
 20
164.908237
 30
0.0
 10
107.255177
 20
165.067749
 30
0.0
 10
107.264632
 20
165.182726
 30
0.0
  0
SPLINE
  5
126
100
AcDbEntity
  8
Layer_1
 62
7
100
AcDbSpline
 70
8
 71
3
 72
8
 73
4
 74
0
 40
0
 40
0
 40
0
 40
0
 40
1
 40
1
 40
1
 40
1
 10
107.264632
 20
165.182726
 30
0.0
 10
107.341540
 20
166.117559
 30
0.0
 10
107.324336
 20
167.288189
 30
0.0
 10
107.217879
 20
168.364105
 30
0.0
  0
SPLINE
  5
127
100
AcDbEntity
  8
Layer_1
 62
7
100
AcDbSpline
 70
8
 71
3
 72
8
 73
4
 74
0
 40
0
 40
0
 40
0
 40
0
 40
1
 40
1
 40
1
 40
1
 10
107.217879
 20
168.364105
 30
0.0
 10
106.980349
 20
170.764630
 30
0.0
 10
106.229167
 20
173.042051
 30
0.0
 10
105.127100
 20
174.702866
 30
0.0
  0
SPLINE
  5
128
100
AcDbEntity
  8
Layer_1
 62
7
100
AcDbSpline
 70
8
 71
3
 72
8
 73
4
 74
0
 40
0
 40
0
 40
0
 40
0
 40
1
 40
1
 40
1
 40
1
 10
105.127100
 20
174.702866
 30
0.0
 10
105.013097
 20
174.874666
 30
0.0
 10
104.913546
 20
175.019111
 30
0.0
 10
104.905869
 20
175.023855
 30
0.0
  0
SPLINE
  5
129
100
AcDbEntity
  8
Layer_1
 62
7
100
AcDbSpline
 70
8
 71
3
 72
8
 73
4
 74
0
 40
0
 40
0
 40
0
 40
0
 40
1
 40
1
 40
1
 40
1
 10
104.905869
 20
175.023855
 30
0.0
 10
104.872920
 20
175.044203
 30
0.0
 10
104.390732
 20
175.091441
 30
0.0
 10
104.051264
 20
175.107548
 30
0.0
  0
SPLINE
  5
12a
100
AcDbEntity
  8
Layer_1
 62
7
100
AcDbSpline
 70
8
 71
3
 72
8
 73
4
 74
0
 40
0
 40
0
 40
0
 40
0
 40
1
 40
1
 40
1
 40
1
 10
104.051264
 20
175.107548
 30
0.0
 10
102.875546
 20
175.163340
 30
0.0
 10
101.644882
 20
174.954380
 30
0.0
 10
100.531462
 20
174.509905
 30
0.0
  0
SPLINE
  5
12b
100
AcDbEntity
  8
Layer_1
 62
7
100
AcDbSpline
 70
8
 71
3
 72
8
 73
4
 74
0
 40
0
 40
0
 40
0
 40
0
 40
1
 40
1
 40
1
 40
1
 10
100.531462
 20
174.509905
 30
0.0
 10
100.263192
 20
174.402816
 30
0.0
 10
99.938216
 20
174.250032
 30
0.0
 10
99.938216
 20
174.230999
 30
0.0
  0
SPLINE
  5
12c
100
AcDbEntity
  8
Layer_1
 62
7
100
AcDbSpline
 70
8
 71
3
 72
8
 73
4
 74
0
 40
0
 40
0
 40
0
 40
0
 40
1
 40
1
 40
1
 40
1
 10
99.938216
 20
174.230999
 30
0.0
 10
99.938216
 20
174.220557
 30
0.0
 10
100.001397
 20
174.096738
 30
0.0
 10
100.078616
 20
173.955850
 30
0.0
  0
SPLINE
  5
12d
100
AcDbEntity
  8
Layer_1
 62
7
100
AcDbSpline
 70
8
 71
3
 72
8
 73
4
 74
0
 40
0
 40
0
 40
0
 40
0
 40
1
 40
1
 40
1
 40
1
 10
100.078616
 20
173.955850
 30
0.0
 10
100.281266
 20
173.586119
 30
0.0
 10
100.273953
 20
173.523197
 30
0.0
 10
100.010660
 20
173.371096
 30
0.0
  0
SPLINE
  5
12e
100
AcDbEntity
  8
Layer_1
 62
7
100
AcDbSpline
 70
8
 71
3
 72
8
 73
4
 74
0
 40
0
 40
0
 40
0
 40
0
 40
1
 40
1
 40
1
 40
1
 10
100.010660
 20
173.371096
 30
0.0
 10
99.851484
 20
173.279143
 30
0.0
 10
99.739413
 20
173.264998
 30
0.0
 10
99.660687
 20
173.326923
 30
0.0
  0
SPLINE
  5
12f
100
AcDbEntity
  8
Layer_1
 62
7
100
AcDbSpline
 70
8
 71
3
 72
8
 73
4
 74
0
 40
0
 40
0
 40
0
 40
0
 40
1
 40
1
 40
1
 40
1
 10
99.660687
 20
173.326923
 30
0.0
 10
99.635316
 20
173.346876
 30
0.0
 10
99.550375
 20
173.481849
 30
0.0
 10
99.471901
 20
173.626880
 30
0.0
  0
SPLINE
  5
130
100
AcDbEntity
  8
Layer_1
 62
7
100
AcDbSpline
 70
8
 71
3
 72
8
 73
4
 74
0
 40
0
 40
0
 40
0
 40
0
 40
1
 40
1
 40
1
 40
1
 10
99.471901
 20
173.626880
 30
0.0
 10
99.393423
 20
173.771911
 30
0.0
 10
99.319659
 20
173.890572
 30
0.0
 10
99.307977
 20
173.890572
 30
0.0
  0
SPLINE
  5
131
100
AcDbEntity
  8
Layer_1
 62
7
100
AcDbSpline
 70
8
 71
3
 72
8
 73
4
 74
0
 40
0
 40
0
 40
0
 40
0
 40
1
 40
1
 40
1
 40
1
 10
99.307977
 20
173.890572
 30
0.0
 10
99.265486
 20
173.890574
 30
0.0
 10
98.685590
 20
173.487962
 30
0.0
 10
98.402072
 20
173.261617
 30
0.0
  0
SPLINE
  5
132
100
AcDbEntity
  8
Layer_1
 62
7
100
AcDbSpline
 70
8
 71
3
 72
8
 73
4
 74
0
 40
0
 40
0
 40
0
 40
0
 40
1
 40
1
 40
1
 40
1
 10
98.402072
 20
173.261617
 30
0.0
 10
98.012340
 20
172.950475
 30
0.0
 10
97.388073
 20
172.326222
 30
0.0
 10
97.076717
 20
171.936304
 30
0.0
  0
SPLINE
  5
133
100
AcDbEntity
  8
Layer_1
 62
7
100
AcDbSpline
 70
8
 71
3
 72
8
 73
4
 74
0
 40
0
 40
0
 40
0
 40
0
 40
1
 40
1
 40
1
 40
1
 10
97.076717
 20
171.936304
 30
0.0
 10
96.015878
 20
170.607771
 30
0.0
 10
95.391814
 20
169.037741
 30
0.0
 10
95.248552
 20
167.336957
 30
0.0
  0
SPLINE
  5
134
100
AcDbEntity
  8
Layer_1
 62
7
100
AcDbSpline
 70
8
 71
3
 72
8
 73
4
 74
0
 40
0
 40
0
 40
0
 40
0
 40
1
 40
1
 40
1
 40
1
 10
95.248552
 20
167.336957
 30
0.0
 10
95.220923
 20
167.009015
 30
0.0
 10
95.225551
 20
166.232649
 30
0.0
 10
95.257104
 20
165.903296
 30
0.0
  0
SPLINE
  5
135
100
AcDbEntity
  8
Layer_1
 62
7
100
AcDbSpline
 70
8
 71
3
 72
8
 73
4
 74
0
 40
0
 40
0
 40
0
 40
0
 40
1
 40
1
 40
1
 40
1
 10
95.257115
 20
165.903296
 30
0.0
 10
95.445885
 20
163.932792
 30
0.0
 10
96.272025
 20
162.147680
 30
0.0
 10
97.646758
 20
160.739730
 30
0.0
  0
SPLINE
  5
136
100
AcDbEntity
  8
Layer_1
 62
7
100
AcDbSpline
 70
8
 71
3
 72
8
 73
4
 74
0
 40
0
 40
0
 40
0
 40
0
 40
1
 40
1
 40
1
 40
1
 10
97.646758
 20
160.739730
 30
0.0
 10
98.332998
 20
160.036912
 30
0.0
 10
99.059210
 20
159.503032
 30
0.0
 10
99.900971
 20
159.082465
 30
0.0
  0
SPLINE
  5
137
100
AcDbEntity
  8
Layer_1
 62
7
100
AcDbSpline
 70
8
 71
3
 72
8
 73
4
 74
0
 40
0
 40
0
 40
0
 40
0
 40
1
 40
1
 40
1
 40
1
 10
99.900971
 20
159.082465
 30
0.0
 10
100.944418
 20
158.561116
 30
0.0
 10
101.994527
 20
158.279514
 30
0.0
 10
103.210473
 20
158.194961
 30
0.0
  0
SPLINE
  5
138
100
AcDbEntity
  8
Layer_1
 62
7
100
AcDbSpline
 70
8
 71
3
 72
8
 73
4
 74
0
 40
0
 40
0
 40
0
 40
0
 40
1
 40
1
 40
1
 40
1
 10
103.210473
 20
158.194961
 30
0.0
 10
103.442067
 20
158.178874
 30
0.0
 10
104.289166
 20
158.200323
 30
0.0
 10
104.555736
 20
158.228912
 30
0.0
  0
LINE
  5
139
100
AcDbEntity
  8
Layer_1
 62
7
100
AcDbLine
 10
104.555736
 20
158.228912
 30
0.0
 11
104.555736
 21
158.228799
 31
0.0
  0
SPLINE
  5
13a
100
AcDbEntity
  8
Layer_1
 62
7
100
AcDbSpline
 70
8
 71
3
 72
8
 73
4
 74
0
 40
0
 40
0
 40
0
 40
0
 40
1
 40
1
 40
1
 40
1
 10
100.258965
 20
160.875169
 30
0.0
 10
99.840957
 20
161.046788
 30
0.0
 10
99.634966
 20
161.513809
 30
0.0
 10
99.792417
 20
161.932909
 30
0.0
  0
SPLINE
  5
13b
100
AcDbEntity
  8
Layer_1
 62
7
100
AcDbSpline
 70
8
 71
3
 72
8
 73
4
 74
0
 40
0
 40
0
 40
0
 40
0
 40
1
 40
1
 40
1
 40
1
 10
99.792417
 20
161.932909
 30
0.0
 10
99.893360
 20
162.201613
 30
0.0
 10
100.155781
 20
162.410768
 30
0.0
 10
100.441018
 20
162.449856
 30
0.0
  0
SPLINE
  5
13c
100
AcDbEntity
  8
Layer_1
 62
7
100
AcDbSpline
 70
8
 71
3
 72
8
 73
4
 74
0
 40
0
 40
0
 40
0
 40
0
 40
1
 40
1
 40
1
 40
1
 10
100.441018
 20
162.449856
 30
0.0
 10
100.502816
 20
162.458322
 30
0.0
 10
100.528670
 20
162.453525
 30
0.0
 10
100.556641
 20
162.428125
 30
0.0
  0
SPLINE
  5
13d
100
AcDbEntity
  8
Layer_1
 62
7
100
AcDbSpline
 70
8
 71
3
 72
8
 73
4
 74
0
 40
0
 40
0
 40
0
 40
0
 40
1
 40
1
 40
1
 40
1
 10
100.556641
 20
162.428125
 30
0.0
 10
100.608508
 20
162.381191
 30
0.0
 10
100.601283
 20
162.322856
 30
0.0
 10
100.530197
 20
162.214539
 30
0.0
  0
SPLINE
  5
13e
100
AcDbEntity
  8
Layer_1
 62
7
100
AcDbSpline
 70
8
 71
3
 72
8
 73
4
 74
0
 40
0
 40
0
 40
0
 40
0
 40
1
 40
1
 40
1
 40
1
 10
100.530203
 20
162.214539
 30
0.0
 10
100.427886
 20
162.058667
 30
0.0
 10
100.388124
 20
161.914141
 30
0.0
 10
100.378994
 20
161.664911
 30
0.0
  0
SPLINE
  5
13f
100
AcDbEntity
  8
Layer_1
 62
7
100
AcDbSpline
 70
8
 71
3
 72
8
 73
4
 74
0
 40
0
 40
0
 40
0
 40
0
 40
1
 40
1
 40
1
 40
1
 10
100.378994
 20
161.664911
 30
0.0
 10
100.369342
 20
161.401541
 30
0.0
 10
100.398947
 20
161.252302
 30
0.0
 10
100.496819
 20
161.071144
 30
0.0
  0
SPLINE
  5
140
100
AcDbEntity
  8
Layer_1
 62
7
100
AcDbSpline
 70
8
 71
3
 72
8
 73
4
 74
0
 40
0
 40
0
 40
0
 40
0
 40
1
 40
1
 40
1
 40
1
 10
100.496819
 20
161.071144
 30
0.0
 10
100.553243
 20
160.966665
 30
0.0
 10
100.560849
 20
160.939741
 30
0.0
 10
100.545954
 20
160.897182
 30
0.0
  0
SPLINE
  5
141
100
AcDbEntity
  8
Layer_1
 62
7
100
AcDbSpline
 70
8
 71
3
 72
8
 73
4
 74
0
 40
0
 40
0
 40
0
 40
0
 40
1
 40
1
 40
1
 40
1
 10
100.545954
 20
160.897182
 30
0.0
 10
100.530177
 20
160.852139
 30
0.0
 10
100.518804
 20
160.846438
 30
0.0
 10
100.437789
 20
160.842854
 30
0.0
  0
SPLINE
  5
142
100
AcDbEntity
  8
Layer_1
 62
7
100
AcDbSpline
 70
8
 71
3
 72
8
 73
4
 74
0
 40
0
 40
0
 40
0
 40
0
 40
1
 40
1
 40
1
 40
1
 10
100.437789
 20
160.842854
 30
0.0
 10
100.380828
 20
160.840032
 30
0.0
 10
100.314503
 20
160.852450
 30
0.0
 10
100.258965
 20
160.875140
 30
0.0
  0
LINE
  5
143
100
AcDbEntity
  8
Layer_1
 62
7
100
AcDbLine
 10
100.258965
 20
160.875140
 30
0.0
 11
100.258965
 21
160.875169
 31
0.0
  0
SPLINE
  5
144
100
AcDbEntity
  8
Layer_1
 62
7
100
AcDbSpline
 70
8
 71
3
 72
8
 73
4
 74
0
 40
0
 40
0
 40
0
 40
0
 40
1
 40
1
 40
1
 40
1
 10
106.193054
 20
161.656839
 30
0.0
 10
105.824268
 20
161.732080
 30
0.0
 10
105.446731
 20
161.964405
 30
0.0
 10
105.230509
 20
162.249139
 30
0.0
  0
SPLINE
  5
145
100
AcDbEntity
  8
Layer_1
 62
7
100
AcDbSpline
 70
8
 71
3
 72
8
 73
4
 74
0
 40
0
 40
0
 40
0
 40
0
 40
1
 40
1
 40
1
 40
1
 10
105.230509
 20
162.249139
 30
0.0
 10
105.116619
 20
162.399112
 30
0.0
 10
104.970306
 20
162.692962
 30
0.0
 10
104.928506
 20
162.855663
 30
0.0
  0
SPLINE
  5
146
100
AcDbEntity
  8
Layer_1
 62
7
100
AcDbSpline
 70
8
 71
3
 72
8
 73
4
 74
0
 40
0
 40
0
 40
0
 40
0
 40
1
 40
1
 40
1
 40
1
 10
104.928506
 20
162.855663
 30
0.0
 10
104.881189
 20
163.039869
 30
0.0
 10
104.871963
 20
163.381217
 30
0.0
 10
104.909315
 20
163.565565
 30
0.0
  0
SPLINE
  5
147
100
AcDbEntity
  8
Layer_1
 62
7
100
AcDbSpline
 70
8
 71
3
 72
8
 73
4
 74
0
 40
0
 40
0
 40
0
 40
0
 40
1
 40
1
 40
1
 40
1
 10
104.909315
 20
163.565565
 30
0.0
 10
105.038265
 20
164.201976
 30
0.0
 10
105.515588
 20
164.698602
 30
0.0
 10
106.139666
 20
164.845725
 30
0.0
  0
SPLINE
  5
148
100
AcDbEntity
  8
Layer_1
 62
7
100
AcDbSpline
 70
8
 71
3
 72
8
 73
4
 74
0
 40
0
 40
0
 40
0
 40
0
 40
1
 40
1
 40
1
 40
1
 10
106.139666
 20
164.845725
 30
0.0
 10
106.376219
 20
164.901492
 30
0.0
 10
106.507252
 20
164.873665
 30
0.0
 10
106.563338
 20
164.755357
 30
0.0
  0
SPLINE
  5
149
100
AcDbEntity
  8
Layer_1
 62
7
100
AcDbSpline
 70
8
 71
3
 72
8
 73
4
 74
0
 40
0
 40
0
 40
0
 40
0
 40
1
 40
1
 40
1
 40
1
 10
106.563338
 20
164.755357
 30
0.0
 10
106.604963
 20
164.667643
 30
0.0
 10
106.587976
 20
164.600445
 30
0.0
 10
106.489040
 20
164.461705
 30
0.0
  0
SPLINE
  5
14a
100
AcDbEntity
  8
Layer_1
 62
7
100
AcDbSpline
 70
8
 71
3
 72
8
 73
4
 74
0
 40
0
 40
0
 40
0
 40
0
 40
1
 40
1
 40
1
 40
1
 10
106.489040
 20
164.461705
 30
0.0
 10
106.240826
 20
164.113556
 30
0.0
 10
106.122419
 20
163.644700
 30
0.0
 10
106.143137
 20
163.091996
 30
0.0
  0
SPLINE
  5
14b
100
AcDbEntity
  8
Layer_1
 62
7
100
AcDbSpline
 70
8
 71
3
 72
8
 73
4
 74
0
 40
0
 40
0
 40
0
 40
0
 40
1
 40
1
 40
1
 40
1
 10
106.143137
 20
163.091996
 30
0.0
 10
106.158038
 20
162.694260
 30
0.0
 10
106.222303
 20
162.433571
 30
0.0
 10
106.375192
 20
162.150587
 30
0.0
  0
SPLINE
  5
14c
100
AcDbEntity
  8
Layer_1
 62
7
100
AcDbSpline
 70
8
 71
3
 72
8
 73
4
 74
0
 40
0
 40
0
 40
0
 40
0
 40
1
 40
1
 40
1
 40
1
 10
106.375192
 20
162.150587
 30
0.0
 10
106.535296
 20
161.854254
 30
0.0
 10
106.525351
 20
161.882730
 30
0.0
 10
106.498153
 20
161.798571
 30
0.0
  0
SPLINE
  5
14d
100
AcDbEntity
  8
Layer_1
 62
7
100
AcDbSpline
 70
8
 71
3
 72
8
 73
4
 74
0
 40
0
 40
0
 40
0
 40
0
 40
1
 40
1
 40
1
 40
1
 10
106.498153
 20
161.798571
 30
0.0
 10
106.457081
 20
161.671487
 30
0.0
 10
106.354575
 20
161.623876
 30
0.0
 10
106.193045
 20
161.656839
 30
0.0
  0
LINE
  5
14e
100
AcDbEntity
  8
Layer_1
 62
7
100
AcDbLine
 10
106.193045
 20
161.656839
 30
0.0
 11
106.193054
 21
161.656839
 31
0.0
  0
SPLINE
  5
14f
100
AcDbEntity
  8
Layer_1
 62
7
100
AcDbSpline
 70
8
 71
3
 72
8
 73
4
 74
0
 40
0
 40
0
 40
0
 40
0
 40
1
 40
1
 40
1
 40
1
 10
98.703929
 20
165.373565
 30
0.0
 10
98.287654
 20
165.466670
 30
0.0
 10
97.897148
 20
165.686295
 30
0.0
 10
97.628467
 20
165.978424
 30
0.0
  0
SPLINE
  5
150
100
AcDbEntity
  8
Layer_1
 62
7
100
AcDbSpline
 70
8
 71
3
 72
8
 73
4
 74
0
 40
0
 40
0
 40
0
 40
0
 40
1
 40
1
 40
1
 40
1
 10
97.628467
 20
165.978424
 30
0.0
 10
96.859570
 20
166.814366
 30
0.0
 10
96.889107
 20
168.080161
 30
0.0
 10
97.695591
 20
168.855087
 30
0.0
  0
SPLINE
  5
151
100
AcDbEntity
  8
Layer_1
 62
7
100
AcDbSpline
 70
8
 71
3
 72
8
 73
4
 74
0
 40
0
 40
0
 40
0
 40
0
 40
1
 40
1
 40
1
 40
1
 10
97.695591
 20
168.855087
 30
0.0
 10
98.020262
 20
169.167055
 30
0.0
 10
98.403670
 20
169.356962
 30
0.0
 10
98.827446
 20
169.415693
 30
0.0
  0
SPLINE
  5
152
100
AcDbEntity
  8
Layer_1
 62
7
100
AcDbSpline
 70
8
 71
3
 72
8
 73
4
 74
0
 40
0
 40
0
 40
0
 40
0
 40
1
 40
1
 40
1
 40
1
 10
98.827446
 20
169.415693
 30
0.0
 10
99.077980
 20
169.450406
 30
0.0
 10
99.210825
 20
169.359305
 30
0.0
 10
99.210978
 20
169.152718
 30
0.0
  0
SPLINE
  5
153
100
AcDbEntity
  8
Layer_1
 62
7
100
AcDbSpline
 70
8
 71
3
 72
8
 73
4
 74
0
 40
0
 40
0
 40
0
 40
0
 40
1
 40
1
 40
1
 40
1
 10
99.210978
 20
169.152718
 30
0.0
 10
99.211031
 20
169.069350
 30
0.0
 10
99.201467
 20
169.046828
 30
0.0
 10
99.118307
 20
168.934560
 30
0.0
  0
SPLINE
  5
154
100
AcDbEntity
  8
Layer_1
 62
7
100
AcDbSpline
 70
8
 71
3
 72
8
 73
4
 74
0
 40
0
 40
0
 40
0
 40
0
 40
1
 40
1
 40
1
 40
1
 10
99.118307
 20
168.934560
 30
0.0
 10
98.524401
 20
168.132795
 30
0.0
 10
98.491209
 20
166.677262
 30
0.0
 10
99.047215
 20
165.817021
 30
0.0
  0
SPLINE
  5
155
100
AcDbEntity
  8
Layer_1
 62
7
100
AcDbSpline
 70
8
 71
3
 72
8
 73
4
 74
0
 40
0
 40
0
 40
0
 40
0
 40
1
 40
1
 40
1
 40
1
 10
99.047215
 20
165.817021
 30
0.0
 10
99.104159
 20
165.728911
 30
0.0
 10
99.120150
 20
165.686662
 30
0.0
 10
99.120150
 20
165.624291
 30
0.0
  0
SPLINE
  5
156
100
AcDbEntity
  8
Layer_1
 62
7
100
AcDbSpline
 70
8
 71
3
 72
8
 73
4
 74
0
 40
0
 40
0
 40
0
 40
0
 40
1
 40
1
 40
1
 40
1
 10
99.120150
 20
165.624291
 30
0.0
 10
99.120150
 20
165.412737
 30
0.0
 10
98.960026
 20
165.316274
 30
0.0
 10
98.703929
 20
165.373565
 30
0.0
  0
LINE
  5
157
100
AcDbEntity
  8
Layer_1
 62
7
100
AcDbLine
 10
98.703929
 20
165.373565
 30
0.0
 11
98.703929
 21
165.373565
 31
0.0
  0
SPLINE
  5
158
100
AcDbEntity
  8
Layer_1
 62
7
100
AcDbSpline
 70
8
 71
3
 72
8
 73
4
 74
0
 40
0
 40
0
 40
0
 40
0
 40
1
 40
1
 40
1
 40
1
 10
103.237744
 20
169.834482
 30
0.0
 10
102.851873
 20
169.946891
 30
0.0
 10
102.545416
 20
170.249490
 30
0.0
 10
102.416483
 20
170.645476
 30
0.0
  0
SPLINE
  5
159
100
AcDbEntity
  8
Layer_1
 62
7
100
AcDbSpline
 70
8
 71
3
 72
8
 73
4
 74
0
 40
0
 40
0
 40
0
 40
0
 40
1
 40
1
 40
1
 40
1
 10
102.416483
 20
170.645476
 30
0.0
 10
102.377985
 20
170.763699
 30
0.0
 10
102.368768
 20
170.828300
 30
0.0
 10
102.367213
 20
170.990888
 30
0.0
  0
SPLINE
  5
15a
100
AcDbEntity
  8
Layer_1
 62
7
100
AcDbSpline
 70
8
 71
3
 72
8
 73
4
 74
0
 40
0
 40
0
 40
0
 40
0
 40
1
 40
1
 40
1
 40
1
 10
102.367213
 20
170.990888
 30
0.0
 10
102.364955
 20
171.217738
 30
0.0
 10
102.388266
 20
171.332574
 30
0.0
 10
102.473828
 20
171.518079
 30
0.0
  0
SPLINE
  5
15b
100
AcDbEntity
  8
Layer_1
 62
7
100
AcDbSpline
 70
8
 71
3
 72
8
 73
4
 74
0
 40
0
 40
0
 40
0
 40
0
 40
1
 40
1
 40
1
 40
1
 10
102.473828
 20
171.518079
 30
0.0
 10
102.622342
 20
171.840095
 30
0.0
 10
102.879147
 20
172.066775
 30
0.0
 10
103.215956
 20
172.173173
 30
0.0
  0
SPLINE
  5
15c
100
AcDbEntity
  8
Layer_1
 62
7
100
AcDbSpline
 70
8
 71
3
 72
8
 73
4
 74
0
 40
0
 40
0
 40
0
 40
0
 40
1
 40
1
 40
1
 40
1
 10
103.215956
 20
172.173173
 30
0.0
 10
103.351993
 20
172.216156
 30
0.0
 10
103.501898
 20
172.230577
 30
0.0
 10
103.564154
 20
172.206673
 30
0.0
  0
SPLINE
  5
15d
100
AcDbEntity
  8
Layer_1
 62
7
100
AcDbSpline
 70
8
 71
3
 72
8
 73
4
 74
0
 40
0
 40
0
 40
0
 40
0
 40
1
 40
1
 40
1
 40
1
 10
103.564154
 20
172.206673
 30
0.0
 10
103.598009
 20
172.193691
 30
0.0
 10
103.646772
 20
172.107557
 30
0.0
 10
103.646772
 20
172.060736
 30
0.0
  0
SPLINE
  5
15e
100
AcDbEntity
  8
Layer_1
 62
7
100
AcDbSpline
 70
8
 71
3
 72
8
 73
4
 74
0
 40
0
 40
0
 40
0
 40
0
 40
1
 40
1
 40
1
 40
1
 10
103.646772
 20
172.060736
 30
0.0
 10
103.646772
 20
172.043238
 30
0.0
 10
103.608598
 20
171.972062
 30
0.0
 10
103.561936
 20
171.902522
 30
0.0
  0
SPLINE
  5
15f
100
AcDbEntity
  8
Layer_1
 62
7
100
AcDbSpline
 70
8
 71
3
 72
8
 73
4
 74
0
 40
0
 40
0
 40
0
 40
0
 40
1
 40
1
 40
1
 40
1
 10
103.561936
 20
171.902522
 30
0.0
 10
103.384161
 20
171.637544
 30
0.0
 10
103.313524
 20
171.371380
 30
0.0
 10
103.312759
 20
170.963597
 30
0.0
  0
SPLINE
  5
160
100
AcDbEntity
  8
Layer_1
 62
7
100
AcDbSpline
 70
8
 71
3
 72
8
 73
4
 74
0
 40
0
 40
0
 40
0
 40
0
 40
1
 40
1
 40
1
 40
1
 10
103.312759
 20
170.963597
 30
0.0
 10
103.311912
 20
170.574949
 30
0.0
 10
103.362187
 20
170.380723
 30
0.0
 10
103.547486
 20
170.054729
 30
0.0
  0
SPLINE
  5
161
100
AcDbEntity
  8
Layer_1
 62
7
100
AcDbSpline
 70
8
 71
3
 72
8
 73
4
 74
0
 40
0
 40
0
 40
0
 40
0
 40
1
 40
1
 40
1
 40
1
 10
103.547486
 20
170.054729
 30
0.0
 10
103.599437
 20
169.963317
 30
0.0
 10
103.595740
 20
169.908058
 30
0.0
 10
103.533177
 20
169.841030
 30
0.0
  0
SPLINE
  5
162
100
AcDbEntity
  8
Layer_1
 62
7
100
AcDbSpline
 70
8
 71
3
 72
8
 73
4
 74
0
 40
0
 40
0
 40
0
 40
0
 40
1
 40
1
 40
1
 40
1
 10
103.533177
 20
169.841030
 30
0.0
 10
103.486232
 20
169.790738
 30
0.0
 10
103.394888
 20
169.788734
 30
0.0
 10
103.237733
 20
169.834539
 30
0.0
  0
LINE
  5
163
100
AcDbEntity
  8
Layer_1
 62
7
100
AcDbLine
 10
103.237733
 20
169.834539
 30
0.0
 11
103.237744
 21
169.834482
 31
0.0
  0
SPLINE
  5
164
100
AcDbEntity
  8
Layer_1
 62
7
100
AcDbSpline
 70
8
 71
3
 72
8
 73
4
 74
0
 40
0
 40
0
 40
0
 40
0
 40
1
 40
1
 40
1
 40
1
 10
99.791097
 20
176.656680
 30
0.0
 10
100.276954
 20
176.928279
 30
0.0
 10
100.681186
 20
177.156281
 30
0.0
 10
100.689393
 20
177.163348
 30
0.0
  0
SPLINE
  5
165
100
AcDbEntity
  8
Layer_1
 62
7
100
AcDbSpline
 70
8
 71
3
 72
8
 73
4
 74
0
 40
0
 40
0
 40
0
 40
0
 40
1
 40
1
 40
1
 40
1
 10
100.689393
 20
177.163348
 30
0.0
 10
100.702319
 20
177.174495
 30
0.0
 10
100.253422
 20
177.999953
 30
0.0
 10
100.211678
 20
178.041784
 30
0.0
  0
SPLINE
  5
166
100
AcDbEntity
  8
Layer_1
 62
7
100
AcDbSpline
 70
8
 71
3
 72
8
 73
4
 74
0
 40
0
 40
0
 40
0
 40
0
 40
1
 40
1
 40
1
 40
1
 10
100.211678
 20
178.041784
 30
0.0
 10
100.197765
 20
178.055726
 30
0.0
 10
98.491356
 20
177.116549
 30
0.0
 10
98.432394
 20
177.062481
 30
0.0
  0
SPLINE
  5
167
100
AcDbEntity
  8
Layer_1
 62
7
100
AcDbSpline
 70
8
 71
3
 72
8
 73
4
 74
0
 40
0
 40
0
 40
0
 40
0
 40
1
 40
1
 40
1
 40
1
 10
98.432394
 20
177.062481
 30
0.0
 10
98.412554
 20
177.044278
 30
0.0
 10
98.451472
 20
176.960980
 30
0.0
 10
98.647676
 20
176.601567
 30
0.0
  0
SPLINE
  5
168
100
AcDbEntity
  8
Layer_1
 62
7
100
AcDbSpline
 70
8
 71
3
 72
8
 73
4
 74
0
 40
0
 40
0
 40
0
 40
0
 40
1
 40
1
 40
1
 40
1
 10
98.647676
 20
176.601567
 30
0.0
 10
98.779401
 20
176.360281
 30
0.0
 10
98.891798
 20
176.162861
 30
0.0
 10
98.897448
 20
176.162861
 30
0.0
  0
SPLINE
  5
169
100
AcDbEntity
  8
Layer_1
 62
7
100
AcDbSpline
 70
8
 71
3
 72
8
 73
4
 74
0
 40
0
 40
0
 40
0
 40
0
 40
1
 40
1
 40
1
 40
1
 10
98.897448
 20
176.162861
 30
0.0
 10
98.903093
 20
176.162861
 30
0.0
 10
99.305243
 20
176.385080
 30
0.0
 10
99.791097
 20
176.656680
 30
0.0
  0
LINE
  5
16a
100
AcDbEntity
  8
Layer_1
 62
7
100
AcDbLine
 10
99.791097
 20
176.656680
 30
0.0
 11
99.791097
 21
176.656680
 31
0.0
  0
ENDSEC
  0
SECTION
  2
OBJECTS
  0
DICTIONARY
  5
C
330
0
100
AcDbDictionary
  3
ACAD_GROUP
350
D
  3
ACAD_MLINESTYLE
350
17
  0
DICTIONARY
  5
D
330
C
100
AcDbDictionary
  0
DICTIONARY
  5
1A
330
C
100
AcDbDictionary
  0
DICTIONARY
  5
17
330
C
100
AcDbDictionary
  3
STANDARD
350
18
  0
DICTIONARY
  5
19
330
C
100
AcDbDictionary
  0
ENDSEC
  0
EOF
